<svg xmlns="http://www.w3.org/2000/svg" xmlns:xlink="http://www.w3.org/1999/xlink" version="1.1" x="0px" y="0px" viewBox="0 0 64 80" style="enable-background:new 0 0 64 64;" xml:space="preserve"><g><path d="M59.172,23c-0.065,0-0.126,0.015-0.19,0.019C58.985,22.955,59,22.893,59,22.829C59,20.717,57.282,19,55.172,19   c-0.065,0-0.126,0.015-0.19,0.019C54.985,18.955,55,18.893,55,18.829c0-1.737-1.17-3.19-2.757-3.657l7.636-7.636   C60.602,6.812,61,5.851,61,4.829C61,2.717,59.282,1,57.172,1c-1.023,0-1.984,0.398-2.707,1.122l-3.179,3.179   C50.894,5.113,50.462,5,50,5H39V1H8C4.141,1,1,4.14,1,8s3.141,7,7,7h31v-4h6.586l-6.139,6.139C38.453,16.411,37.239,16,36,16   c-1.534,0-3.036,0.622-4.121,1.707l-3.527,3.527c-1.48,1.48-2.504,3.344-2.959,5.388l-1.306,5.877L20,36.586l-2-2L6.586,46   L24,63.414L35.414,52l-2-2l3.079-3.079l6.734-1.347c2.136-0.427,4.079-1.467,5.62-3.008l2.688-2.688l1.172-1.172l9.172-9.172   C62.602,28.812,63,27.851,63,26.829C63,24.717,61.282,23,59.172,23z M55.172,21C56.18,21,57,21.82,57,22.829   c0,0.488-0.19,0.948-0.535,1.293L46.121,34.465C45.781,34.805,45.31,35,44.828,35C43.82,35,43,34.18,43,33.172   c0-0.489,0.19-0.948,0.535-1.293l0.907-0.906c1.892-0.135,3.396-1.639,3.531-3.531l5.906-5.906C54.22,21.195,54.69,21,55.172,21z    M39.504,27.917l1.961,1.961c0.213,0.213,0.451,0.388,0.7,0.543l-0.044,0.044C41.78,30.805,41.31,31,40.828,31   C39.82,31,39,30.18,39,29.171C39,28.7,39.181,28.258,39.504,27.917z M51.172,17C52.18,17,53,17.82,53,18.829   c0,0.488-0.19,0.948-0.535,1.293l-5.044,5.043c-0.155-0.25-0.33-0.488-0.542-0.701L44.914,22.5l4.965-4.965   C50.22,17.195,50.69,17,51.172,17z M3,8c0-2.757,2.243-5,5-5h25v10H8C5.243,13,3,10.757,3,8z M37,13h-2V3h2V13z M39,7h11   c0.552,0,1,0.449,1,1s-0.448,1-1,1H39V7z M50,11c1.654,0,3-1.346,3-3c0-0.462-0.113-0.894-0.301-1.285l3.18-3.18   C56.22,3.195,56.69,3,57.172,3C58.18,3,59,3.82,59,4.829c0,0.488-0.19,0.948-0.535,1.293L43.5,21.086L40.914,18.5l7.5-7.5H50z    M31,53.586L20.707,43.293l-1.414,1.414L29.586,55L24,60.586L9.414,46L15,40.414l3.293,3.293l1.414-1.414L16.414,39L18,37.414   L32.586,52L31,53.586z M42.835,43.613l-7.328,1.466L32,48.586L21.414,38l4.499-4.499l1.433-6.445   c0.372-1.672,1.209-3.196,2.42-4.408l3.527-3.527C34.006,18.409,34.992,18,36,18s1.994,0.409,2.707,1.121l6.758,6.757   C45.81,26.224,46,26.683,46,27.171C46,28.18,45.18,29,44.172,29c-0.481,0-0.952-0.195-1.293-0.536L36,21.586l-2,2v3.272   c0,2.404-0.937,4.664-2.636,6.364l-1.571,1.571l1.414,1.414l1.571-1.571C34.855,32.558,36,29.796,36,26.858v-2.444l2.09,2.089   c-0.7,0.719-1.09,1.663-1.09,2.668C37,31.283,38.718,33,40.828,33c0.065,0,0.126-0.015,0.19-0.019   C41.015,33.046,41,33.107,41,33.172C41,35.282,42.718,37,44.828,37c0.065,0,0.126-0.015,0.19-0.019   C45.015,37.046,45,37.107,45,37.172c0,1.736,1.17,3.19,2.757,3.657l-0.324,0.324C46.173,42.413,44.583,43.264,42.835,43.613z    M60.465,28.122l-9.172,9.171l0,0l-1.172,1.172C49.781,38.805,49.31,39,48.828,39C47.82,39,47,38.18,47,37.172   c0-0.481,0.195-0.953,0.535-1.293l10.344-10.344C58.22,25.195,58.69,25,59.172,25C60.18,25,61,25.82,61,26.829   C61,27.317,60.81,27.776,60.465,28.122z"/><rect x="34.94" y="40.933" transform="matrix(0.981 -0.1942 0.1942 0.981 -7.4605 7.7795)" width="2" height="2"/><rect x="38.862" y="40.149" transform="matrix(0.9805 -0.1963 0.1963 0.9805 -7.3021 8.6258)" width="2" height="2"/><path d="M13,5v6h18V5H13z M23,7h2v2h-2V7z M21,9h-2V7h2V9z M15,7h2v2h-2V7z M29,9h-2V7h2V9z"/><path d="M8,5C6.346,5,5,6.346,5,8s1.346,3,3,3s3-1.346,3-3S9.654,5,8,5z M8,9C7.448,9,7,8.551,7,8s0.448-1,1-1s1,0.449,1,1   S8.552,9,8,9z"/></g><text x="0" y="79" fill="#000000" font-size="5px" font-weight="bold" font-family="'Helvetica Neue', Helvetica, Arial-Unicode, Arial, Sans-serif">Created by Eucalyp</text><text x="0" y="84" fill="#000000" font-size="5px" font-weight="bold" font-family="'Helvetica Neue', Helvetica, Arial-Unicode, Arial, Sans-serif">from the Noun Project</text></svg>